<svg width="25" height="22" viewBox="0 0 25 22" fill="none" xmlns="http://www.w3.org/2000/svg">
<path d="M10.1731 4.49904C10.3225 4.49859 10.4701 4.52826 10.6052 4.58587C10.7402 4.64348 10.8591 4.72757 10.9533 4.83197L15.7847 10.2307C15.9318 10.3917 16.0122 10.5936 16.0122 10.802C16.0122 11.0105 15.9318 11.2124 15.7847 11.3734L10.7832 16.7721C10.6134 16.9559 10.3695 17.0714 10.105 17.0934C9.84046 17.1153 9.57711 17.0418 9.37283 16.8891C9.16856 16.7364 9.0401 16.5169 9.01571 16.279C8.99132 16.041 9.07301 15.8041 9.24279 15.6204L13.7141 10.7975L9.39284 5.97469C9.27052 5.84262 9.19282 5.68179 9.16893 5.51124C9.14505 5.34068 9.17597 5.16754 9.25805 5.0123C9.34013 4.85707 9.46993 4.72623 9.63208 4.63527C9.79424 4.54431 9.98197 4.49704 10.1731 4.49904V4.49904Z" fill="#2D2D2D"/>
</svg>
