<svg width="25" height="22" viewBox="0 0 25 22" fill="none" xmlns="http://www.w3.org/2000/svg">
<path d="M13.8338 4.49904C13.6843 4.49859 13.5367 4.52826 13.4017 4.58587C13.2667 4.64348 13.1477 4.72757 13.0536 4.83197L8.22218 10.2307C8.07506 10.3917 7.99463 10.5936 7.99463 10.802C7.99463 11.0105 8.07506 11.2124 8.22218 11.3734L13.2236 16.7721C13.3934 16.9559 13.6374 17.0714 13.9019 17.0934C14.1664 17.1153 14.4297 17.0418 14.634 16.8891C14.8383 16.7364 14.9667 16.5169 14.9911 16.279C15.0155 16.041 14.9338 15.8041 14.764 15.6204L10.2928 10.7975L14.614 5.97469C14.7363 5.84262 14.814 5.68179 14.8379 5.51124C14.8618 5.34068 14.8309 5.16754 14.7488 5.0123C14.6667 4.85707 14.5369 4.72623 14.3748 4.63527C14.2126 4.54431 14.0249 4.49704 13.8338 4.49904V4.49904Z" fill="#2D2D2D"/>
</svg>
